<svg width="12" height="18" viewBox="0 0 12 18" fill="none" xmlns="http://www.w3.org/2000/svg">
<path d="M6.04166 3.70833C5.625 3.70833 5.26736 3.55903 4.96875 3.26042C4.67014 2.96181 4.52083 2.60417 4.52083 2.1875C4.52083 1.77083 4.67014 1.4132 4.96875 1.11458C5.26736 0.815973 5.625 0.666668 6.04166 0.666668C6.45833 0.666668 6.81597 0.815973 7.11458 1.11458C7.41319 1.4132 7.5625 1.77083 7.5625 2.1875C7.5625 2.60417 7.41319 2.96181 7.11458 3.26042C6.81597 3.55903 6.45833 3.70833 6.04166 3.70833ZM10.5 17.3333V12.9792H6.04166C5.625 12.9792 5.27083 12.8333 4.97916 12.5417C4.6875 12.25 4.54166 11.8958 4.54166 11.4792V6.33333C4.54166 5.91667 4.6875 5.5625 4.97916 5.27083C5.27083 4.97917 5.625 4.83333 6.04166 4.83333C6.36111 4.83333 6.63194 4.89583 6.85416 5.02083C7.07639 5.14583 7.34028 5.38889 7.64583 5.75C8.22917 6.43056 8.86805 7 9.5625 7.45833C10.2569 7.91667 11.0139 8.15972 11.8333 8.1875V9.4375C11.125 9.4375 10.3958 9.26389 9.64583 8.91667C8.89583 8.56945 8.17361 8.10417 7.47916 7.52083V11.3333H10.25C10.6667 11.3333 11.0208 11.4792 11.3125 11.7708C11.6042 12.0625 11.75 12.4167 11.75 12.8333V17.3333H10.5ZM4.25 17.3333C3.09722 17.3333 2.12847 16.941 1.34375 16.1563C0.559025 15.3715 0.166664 14.4028 0.166664 13.25C0.166664 12.3056 0.510414 11.434 1.19791 10.6354C1.88541 9.83681 2.79166 9.375 3.91666 9.25V10.5208C3.16666 10.5903 2.56597 10.8993 2.11458 11.4479C1.66319 11.9965 1.4375 12.5972 1.4375 13.25C1.4375 14.0556 1.70486 14.7292 2.23958 15.2708C2.7743 15.8125 3.44444 16.0833 4.25 16.0833C4.90278 16.0833 5.50694 15.8576 6.0625 15.4063C6.61805 14.9549 6.92361 14.3542 6.97916 13.6042H8.25C8.13889 14.7153 7.68055 15.6146 6.875 16.3021C6.06944 16.9896 5.19444 17.3333 4.25 17.3333Z" fill="#1D1D1D"/>
</svg>
