<svg width="20" height="20" viewBox="0 0 20 20" fill="none" xmlns="http://www.w3.org/2000/svg">
<path d="M9.99999 18.3333C8.84721 18.3333 7.76388 18.1146 6.74999 17.6771C5.7361 17.2396 4.85416 16.6458 4.10416 15.8958C3.35416 15.1458 2.76041 14.2639 2.32291 13.25C1.88541 12.2361 1.66666 11.1528 1.66666 10C1.66666 8.84722 1.88541 7.76389 2.32291 6.75C2.76041 5.73611 3.35416 4.85417 4.10416 4.10417C4.85416 3.35417 5.7361 2.76042 6.74999 2.32292C7.76388 1.88542 8.84721 1.66667 9.99999 1.66667C11.1528 1.66667 12.2361 1.88542 13.25 2.32292C14.2639 2.76042 15.1458 3.35417 15.8958 4.10417C16.6458 4.85417 17.2396 5.73611 17.6771 6.75C18.1146 7.76389 18.3333 8.84722 18.3333 10C18.3333 11.1528 18.1146 12.2361 17.6771 13.25C17.2396 14.2639 16.6458 15.1458 15.8958 15.8958C15.1458 16.6458 14.2639 17.2396 13.25 17.6771C12.2361 18.1146 11.1528 18.3333 9.99999 18.3333ZM10.4167 17.0833C12.3194 16.9444 13.9062 16.2083 15.1771 14.875C16.4479 13.5417 17.0833 11.9167 17.0833 10C17.0833 8.08333 16.4479 6.45833 15.1771 5.125C13.9062 3.79167 12.3194 3.05556 10.4167 2.91667V17.0833Z" fill="#1D1D1D"/>
</svg>
