<svg width="53" height="57" viewBox="0 0 53 57" fill="none" xmlns="http://www.w3.org/2000/svg">
<path d="M34.6657 46.6458C32.758 46.6458 31.1528 45.9944 29.8501 44.6917C28.5473 43.3889 27.8959 41.7837 27.8959 39.876C27.8959 37.9684 28.5473 36.3632 29.8501 35.0604C31.1528 33.7576 32.758 33.1062 34.6657 33.1062C36.5733 33.1062 38.1785 33.7576 39.4813 35.0604C40.7841 36.3632 41.4355 37.9684 41.4355 39.876C41.4355 41.7837 40.7841 43.3889 39.4813 44.6917C38.1785 45.9944 36.5733 46.6458 34.6657 46.6458V46.6458ZM5.70213 56.8354C4.44588 56.8354 3.34085 56.3585 2.38703 55.4047C1.43321 54.4509 0.956299 53.3458 0.956299 52.0896V9.09791C0.956299 7.79514 1.43321 6.67847 2.38703 5.74791C3.34085 4.81736 4.44588 4.35208 5.70213 4.35208H10.099V0.164581H14.9146V4.35208H38.0855V0.164581H42.9011V4.35208H47.298C48.6007 4.35208 49.7174 4.81736 50.648 5.74791C51.5785 6.67847 52.0438 7.79514 52.0438 9.09791V52.0896C52.0438 53.3458 51.5785 54.4509 50.648 55.4047C49.7174 56.3585 48.6007 56.8354 47.298 56.8354H5.70213ZM5.70213 52.0896H47.298V22.2187H5.70213V52.0896ZM5.70213 18.0312H47.298V9.09791H5.70213V18.0312ZM5.70213 18.0312V9.09791V18.0312Z" fill="#1D1D1D"/>
</svg>
