<svg width="67" height="67" viewBox="0 0 67 67" fill="none" xmlns="http://www.w3.org/2000/svg">
<g clip-path="url(#clip0_40_2589)">
<path d="M25.7056 28.6006C25.5856 30.1054 24.8123 31.6659 23.69 32.6736C23.3075 33.017 23.1429 33.5474 23.2685 34.0499L23.838 36.3306C23.9636 36.8304 24.3516 37.2211 24.8541 37.3468L29.854 38.5946C30.5435 38.7649 31.1856 39.0971 31.7635 39.5829C32.3554 40.077 33.2348 40.0016 33.7316 39.407C34.223 38.8151 34.1447 37.9358 33.5558 37.4389C32.6513 36.6824 31.6351 36.1603 30.5324 35.8811L26.3421 34.837L26.1663 34.1335C27.2523 32.9331 28.0255 31.4005 28.3438 29.8093C29.0891 29.424 29.6335 28.6898 29.7424 27.8104L30.0439 25.3873C30.136 24.653 29.9099 23.9076 29.4214 23.3521C29.2706 23.179 29.0975 23.0283 28.9105 22.9026L28.9831 21.4203L29.2371 21.1634C29.9574 20.4013 30.9316 18.7654 29.3906 16.412C28.6593 15.2954 27.1545 13.9581 24.1311 13.9581C23.2406 13.9581 21.2334 13.9581 19.2848 15.1836C13.5395 15.3846 12.8639 18.4806 12.8639 20.8173C12.8639 21.2779 12.9476 22.1405 13.0257 22.8608C12.8191 22.992 12.6321 23.1539 12.4646 23.3409C11.9677 23.902 11.7387 24.6501 11.8337 25.3871L12.1353 27.8159C12.2498 28.726 12.8276 29.4798 13.679 29.851C13.9916 31.3753 14.7231 32.8465 15.742 34.019L15.5382 34.8398L11.348 35.8839C7.95613 36.7325 5.58325 39.7699 5.58325 43.2706C5.58325 44.0411 6.20863 44.6665 6.97913 44.6665H26.6799C27.4504 44.6665 28.0758 44.0411 28.0758 43.2706C28.0758 42.5001 27.4505 41.875 26.68 41.875L8.58438 41.8723C9.06176 40.2783 10.3488 39.0108 12.0293 38.592L17.0319 37.3441C17.5316 37.2185 17.9224 36.8305 18.048 36.328L18.6426 33.9468C18.7655 33.4583 18.6119 32.939 18.2406 32.5928C17.1546 31.5683 16.4373 30.0746 16.3171 28.5951C16.2585 27.8693 15.6387 27.4701 14.9101 27.4701L14.55 25.2451C14.952 25.2451 15.3316 25.072 15.5969 24.7734C15.8621 24.4691 15.9849 24.0726 15.9346 23.6735C15.8285 22.8304 15.6582 21.309 15.6582 20.8149C15.6582 19.3717 15.6582 18.0065 19.7396 17.9647C20.0244 17.9619 20.3035 17.8725 20.538 17.7023C21.8671 16.75 23.397 16.75 24.1311 16.75C26.2751 16.75 26.8586 17.6434 27.0624 17.942C27.6291 18.813 27.3974 19.0586 27.241 19.2261L26.6353 19.8319C26.3896 20.0775 26.2444 20.4041 26.2276 20.7504L26.0769 23.7905C26.0601 24.1701 26.1047 24.4326 26.3673 24.7118C26.6269 24.9881 26.8976 25.0411 27.2774 25.0468L27.0959 27.3136C26.3673 27.3136 25.7643 27.872 25.7056 28.6006Z" fill="#1D1D1D"/>
<path d="M40.4791 22.3334H48.8541C49.6246 22.3334 50.25 21.708 50.25 20.9375C50.25 20.167 49.6246 19.5416 48.8541 19.5416H40.4791C39.7086 19.5416 39.0833 20.167 39.0833 20.9375C39.0833 21.708 39.7086 22.3334 40.4791 22.3334Z" fill="#1D1D1D"/>
<path d="M60.0209 0H6.97912C3.1295 0 0 3.1295 0 6.97912V43.2707C0 47.1205 3.1295 50.25 6.97912 50.25H27.6319C28.4051 50.25 29.0278 49.6246 29.0278 48.8541C29.0278 48.0836 28.4024 47.4582 27.6319 47.4582H6.97912C4.67037 47.4582 2.79162 45.5795 2.79162 43.2707V11.1666H64.2082V38.5529C64.2082 39.3234 64.8336 39.9487 65.6041 39.9487C66.3746 39.9487 67 39.3234 67 38.5529V6.97912C67 3.1295 63.8705 0 60.0209 0ZM64.2084 8.375H2.79162V6.97912C2.79162 4.67037 4.67037 2.79162 6.97912 2.79162H60.0207C62.3295 2.79162 64.2082 4.67037 64.2082 6.97912V8.375H64.2084Z" fill="#1D1D1D"/>
<path d="M60.0209 22.3334C60.7914 22.3334 61.4168 21.708 61.4168 20.9375C61.4168 20.167 60.7914 19.5416 60.0209 19.5416H54.4375C53.667 19.5416 53.0416 20.167 53.0416 20.9375C53.0416 21.708 53.667 22.3334 54.4375 22.3334H60.0209Z" fill="#1D1D1D"/>
<path d="M67 44.6666C67 43.4998 66.1317 42.6845 64.8895 42.6845C64.1887 42.6845 62.9884 43.0446 61.9555 43.6392C60.5904 40.7582 58.357 38.2039 56.7574 37.4082C55.6994 36.8806 52.0952 36.2916 48.8541 36.2916C45.613 36.2916 42.009 36.8806 40.9481 37.4082C39.3541 38.2039 37.1207 40.7582 35.7529 43.6392C34.7171 43.0446 33.5167 42.6845 32.816 42.6845C32.2856 42.6845 31.8305 42.8212 31.4649 43.0976C30.9791 43.4634 30.7084 44.0216 30.7084 44.6665C30.7084 46.844 32.3974 48.3542 32.5927 48.519C32.7435 48.6474 32.9166 48.7284 33.0952 48.7842C32.428 50.6351 32.1042 52.6897 32.1042 54.4374C32.1042 56.5227 32.2969 60.0794 33.5001 61.8967V64.2082C33.5001 65.7744 34.7256 66.9999 36.2918 66.9999H39.0834C40.6495 66.9999 41.875 65.7744 41.875 64.2082V63.2619C43.5611 63.6834 46.1909 64.2082 48.8541 64.2082C51.5174 64.2082 54.1471 63.6834 55.8332 63.2619V64.2082C55.8332 65.7744 57.0587 66.9999 58.6249 66.9999H61.4165C62.9826 66.9999 64.2081 65.7744 64.2081 64.2082V61.8967C65.4114 60.0794 65.604 56.5227 65.604 54.4374C65.604 52.6897 65.2801 50.6351 64.613 48.7842C64.7916 48.7312 64.9647 48.6502 65.1155 48.519C65.311 48.3545 67 46.8441 67 44.6666ZM42.1905 39.9096C42.7125 39.6695 45.6912 39.0832 48.8542 39.0832C52.0173 39.0832 54.9959 39.6695 55.5096 39.904C56.5676 40.4344 59.0244 43.2178 60.0014 46.2522C57.3772 46.6207 51.1741 47.4582 48.8542 47.4582C46.5344 47.4582 40.3285 46.6207 37.7044 46.2522C38.6814 43.2178 41.138 40.4345 42.1905 39.9096ZM34.3067 46.2997C34.2174 46.2104 34.0806 46.0652 33.9187 45.828C34.103 45.9145 34.2789 46.0123 34.4436 46.11C34.3989 46.1741 34.3515 46.2327 34.3067 46.2997ZM39.0834 64.2084H36.2918V62.8125H39.0834V64.2084V64.2084ZM61.4166 64.2084H58.625V62.8125H61.4166V64.2084V64.2084ZM62.0587 60.0209H57.2291C57.0811 60.0209 56.9332 60.046 56.788 60.0906C56.7489 60.1046 52.7512 61.4166 48.8541 61.4166C44.957 61.4166 40.9592 60.1045 40.9202 60.0934C40.8727 60.0794 40.8254 60.0906 40.7779 60.0822C40.6801 60.0599 40.5852 60.0209 40.4791 60.0209H35.644C35.2782 59.1861 34.893 57.2628 34.893 54.4404C34.893 53.9965 34.9265 53.5248 34.9767 53.0474C36.8527 53.1004 39.0832 53.7341 39.0832 54.4376C39.0832 55.2081 39.7086 55.8335 40.4791 55.8335C41.2496 55.8335 41.875 55.208 41.875 54.4375C41.875 51.0261 37.2687 50.398 35.524 50.2807C35.6804 49.7699 35.8674 49.2898 36.0795 48.8375C36.0822 48.8375 36.0851 48.8402 36.0879 48.8402C36.4787 48.8989 45.694 50.25 48.8541 50.25C52.0142 50.25 61.2296 48.8989 61.6204 48.8402C61.6231 48.8402 61.6231 48.8375 61.626 48.8375C61.8381 49.2898 62.0252 49.7699 62.1815 50.2807C60.4367 50.398 55.8332 51.0289 55.8332 54.4375C55.8332 55.208 56.4586 55.8334 57.2291 55.8334C57.9996 55.8334 58.625 55.208 58.625 54.4375C58.625 53.72 60.8416 53.1059 62.7287 53.0472C62.779 53.5246 62.8125 53.9964 62.8125 54.4375C62.8125 57.2626 62.4245 59.1861 62.0587 60.0209ZM63.3987 46.297C63.3541 46.2327 63.3094 46.1714 63.262 46.11C63.4267 46.0123 63.6054 45.9118 63.7869 45.8253C63.65 46.0317 63.5104 46.1854 63.3987 46.297Z" fill="#1D1D1D"/>
<path d="M40.4791 30.7084H60.0208C60.7913 30.7084 61.4166 30.083 61.4166 29.3125C61.4166 28.542 60.7913 27.9166 60.0208 27.9166H40.4791C39.7086 27.9166 39.0833 28.542 39.0833 29.3125C39.0833 30.083 39.7086 30.7084 40.4791 30.7084Z" fill="#1D1D1D"/>
<path d="M51.6459 53.0416H46.0625C45.292 53.0416 44.6666 53.667 44.6666 54.4375C44.6666 55.208 45.292 55.8334 46.0625 55.8334H51.6459C52.4164 55.8334 53.0418 55.208 53.0418 54.4375C53.0416 53.667 52.4164 53.0416 51.6459 53.0416Z" fill="#1D1D1D"/>
</g>
<defs>
<clipPath id="clip0_40_2589">
<rect width="67" height="67" fill="white"/>
</clipPath>
</defs>
</svg>
