<svg width="57" height="67" viewBox="0 0 57 67" fill="none" xmlns="http://www.w3.org/2000/svg">
<path d="M56.3876 3.3442C56.0893 2.19116 55.36 1.2232 54.3337 0.618683C53.3075 0.0143125 52.1077 -0.154543 50.9542 0.143841L29.1576 5.78346V3.77065C29.1576 3.40735 28.863 3.11277 28.4997 3.11277C28.1364 3.11277 27.8418 3.40735 27.8418 3.77065V5.78346L6.04503 0.143988C4.89199 -0.154543 3.69173 0.0143125 2.66544 0.618829C1.63915 1.22335 0.909781 2.19116 0.611543 3.34434L0.510669 3.99783C0.429531 5.53288 1.43681 6.96837 2.98136 7.36778C3.25709 7.43912 3.53632 7.47435 3.8138 7.47435C4.39551 7.47435 4.96932 7.31909 5.48393 7.01618C6.05117 6.68197 6.4956 6.19763 6.77644 5.61841L8.44365 6.04954C8.81601 6.14588 9.19319 6.19354 9.56774 6.19354C10.3535 6.19354 11.1282 5.98404 11.8231 5.57469C12.6574 5.08333 13.2956 4.35148 13.6653 3.47533L21.5104 5.50467V6.05977C21.2438 6.02775 20.9729 6.00948 20.6976 6.00948C20.3343 6.00948 20.0397 6.30406 20.0397 6.66736C20.0397 7.03065 20.3343 7.32523 20.6976 7.32523C23.7206 7.32523 26.1799 9.78453 26.1799 12.8075C26.1799 13.1708 26.4745 13.4654 26.8378 13.4654C27.2011 13.4654 27.4956 13.1708 27.4956 12.8075C27.4956 12.5472 27.4794 12.2907 27.4509 12.038H27.8418V29.0985C27.4809 29.2128 27.147 29.4147 26.8661 29.695C26.3992 30.161 26.1313 30.8017 26.1313 31.4527V62.3938C24.7777 62.695 23.7628 63.9052 23.7628 65.3481V67H33.3243V65.3481C33.3243 63.9052 32.3094 62.6948 30.9558 62.3938V31.4015C30.9558 30.7562 30.7051 30.1502 30.25 29.6951C29.9434 29.3885 29.5672 29.1773 29.1576 29.0704V12.0381H29.5485C29.5199 12.2909 29.5038 12.5475 29.5038 12.8077C29.5038 13.171 29.7984 13.4656 30.1616 13.4656C30.5249 13.4656 30.8195 13.171 30.8195 12.8077C30.8195 9.78467 33.2788 7.32538 36.3018 7.32538C36.6651 7.32538 36.9597 7.0308 36.9597 6.6675C36.9597 6.30421 36.6651 6.00962 36.3018 6.00962C36.0266 6.00962 35.7557 6.0279 35.4888 6.05991V5.50481L43.3375 3.4746C44.0386 5.12836 45.6707 6.19237 47.4399 6.19237C47.8084 6.19237 48.1828 6.14632 48.5558 6.04968L50.2228 5.61855C50.5038 6.19778 50.9482 6.68212 51.5155 7.01632C52.0301 7.31938 52.6036 7.4745 53.1856 7.4745C53.4629 7.4745 53.7425 7.43912 54.018 7.36792C54.872 7.14717 55.5886 6.60698 56.0363 5.84705C56.3703 5.27982 56.5243 4.64065 56.489 3.99783L56.3876 3.3442ZM4.81611 5.88243C4.35896 6.15173 3.82418 6.22687 3.31089 6.09398C2.47421 5.87761 1.90157 5.15526 1.83125 4.33935L5.4563 5.27689C5.29271 5.52119 5.07692 5.72878 4.81611 5.88243ZM11.1554 4.4411C10.4323 4.86726 9.58645 4.98611 8.77317 4.77588L2.11648 3.054C2.3846 2.51542 2.80257 2.06499 3.33311 1.75257C4.05648 1.32641 4.90281 1.2077 5.7155 1.41778L12.3721 3.13952C12.1039 3.67811 11.686 4.12853 11.1554 4.4411ZM22.8262 6.35274V5.84501L27.8418 7.14249V10.7222H27.1673C26.5018 8.66306 24.8793 7.03153 22.8262 6.35274ZM32.0085 65.3481V65.6842H25.0786V65.3481C25.0786 64.4049 25.846 63.6375 26.7892 63.6375H27.4471H29.64H30.2979C31.2412 63.6375 32.0085 64.4049 32.0085 65.3481ZM29.64 31.4015V62.3217H27.4471V31.4527C27.4471 31.1486 27.5741 30.8474 27.7958 30.6264C28.0034 30.4192 28.2689 30.3052 28.5439 30.3052C28.5444 30.3052 28.5452 30.3052 28.5458 30.3052C28.8387 30.3058 29.1136 30.4197 29.3197 30.6256C29.5261 30.8322 29.64 31.1078 29.64 31.4015ZM34.1729 6.35274C32.1199 7.03153 30.4975 8.66306 29.8321 10.7222H29.1576V7.14249L34.1731 5.84501V6.35274H34.1729ZM48.2261 4.77574C47.4134 4.98597 46.5671 4.86711 45.8437 4.44095C45.3132 4.12839 44.8952 3.67796 44.6271 3.13938L51.2838 1.41764C52.0969 1.20741 52.9426 1.32627 53.666 1.75243C54.1965 2.06499 54.6145 2.51527 54.8826 3.05385L48.2261 4.77574ZM54.9024 5.17909C54.6331 5.6361 54.2021 5.96109 53.6884 6.09398C53.1751 6.22672 52.6403 6.15187 52.183 5.88243C51.9222 5.72878 51.7064 5.52119 51.5428 5.27689L55.1687 4.33905C55.1442 4.63203 55.056 4.91828 54.9024 5.17909Z" fill="#1D1D1D"/>
</svg>
