<svg width="62" height="64" viewBox="0 0 62 64" fill="none" xmlns="http://www.w3.org/2000/svg">
<path d="M9.38417 47.4373V24.2358H13.9013V47.4373H9.38417ZM26.1522 47.4373V24.2358H30.6693V47.4373H26.1522ZM0.349976 20.4716V16.1598L28.137 0.349976L55.924 16.1598V20.4716H0.349976ZM10.5477 15.8176H45.7263L28.137 5.7568L10.5477 15.8176ZM0.349976 55.8555V51.1331H34.8442C34.9354 51.8175 35.0153 52.5589 35.0837 53.3574C35.1522 54.1559 35.3461 54.9886 35.6655 55.8555H0.349976ZM42.3727 35.3917V24.2358H46.8898V33.1331L42.3727 35.3917ZM50.038 64C46.8441 63.1787 44.1978 61.3308 42.0989 58.4563C40 55.5817 38.9506 52.3878 38.9506 48.8745V41.7567L50.038 36.213L61.1255 41.7567V48.8745C61.1255 52.3878 60.076 55.5817 57.9772 58.4563C55.8783 61.3308 53.2319 63.1787 50.038 64V64ZM48.6008 55.5817L58.3878 45.7947L56.4715 43.8099L48.6008 51.7491L44.4259 47.5742L42.5095 49.4905L48.6008 55.5817ZM10.5477 15.8176H45.7263H10.5477Z" fill="#1D1D1D"/>
</svg>
