<svg width="67" height="67" viewBox="0 0 67 67" fill="none" xmlns="http://www.w3.org/2000/svg">
<path d="M55.88 0H11.1201C9.30753 0 7.83301 1.47452 7.83301 3.28706V63.7129C7.83301 65.5255 9.30753 67 11.1201 67H45.8091C46.0873 67 46.3542 66.8896 46.5508 66.6927L58.8598 54.3837C59.0566 54.187 59.167 53.9202 59.167 53.642V3.28706C59.167 1.47452 57.6925 0 55.88 0ZM46.858 63.4184V55.88C46.858 55.2244 47.3914 54.691 48.047 54.691H55.5854L46.858 63.4184ZM57.069 52.5929H48.047C46.2345 52.5929 44.76 54.0674 44.76 55.88V64.9019H11.1201C10.4645 64.9019 9.93108 64.3686 9.93108 63.7129V3.28706C9.93108 2.63145 10.4645 2.09807 11.1201 2.09807H55.88C56.5356 2.09807 57.069 2.63145 57.069 3.28706V52.5929V52.5929Z" fill="#EFE481"/>
<path d="M26.786 8.95197H17.834C17.2547 8.95197 16.7849 9.42162 16.7849 10.0011C16.7849 10.5805 17.2546 11.0502 17.834 11.0502H21.261V21.1911C21.261 21.7704 21.7306 22.2402 22.3101 22.2402C22.8895 22.2402 23.3592 21.7706 23.3592 21.1911V11.0502H26.7861C27.3654 11.0502 27.8352 10.5805 27.8352 10.0011C27.8352 9.42162 27.3653 8.95197 26.786 8.95197Z" fill="#EFE481"/>
<path d="M37.8618 20.8896L34.744 10.497C34.4667 9.57289 33.6322 8.95197 32.6673 8.95197H32.0944C31.1296 8.95197 30.2951 9.57289 30.0178 10.497L26.9 20.8896C26.7335 21.4446 27.0484 22.0294 27.6033 22.1959C28.1583 22.3627 28.7431 22.0475 28.9096 21.4926L29.3566 20.0021H35.4048L35.8519 21.4925C35.9883 21.947 36.4051 22.2403 36.8564 22.2403C36.9561 22.2403 37.0577 22.2259 37.1583 22.1959C37.7134 22.0294 38.0284 21.4446 37.8618 20.8896ZM29.9863 17.9039L32.0274 11.0999C32.0362 11.0706 32.0638 11.05 32.0944 11.05H32.6673C32.698 11.05 32.7256 11.0704 32.7343 11.0999L34.7755 17.9039H29.9863Z" fill="#EFE481"/>
<path d="M48.9063 20.5894L45.4108 15.5961L48.9063 10.6027C49.2386 10.1281 49.1232 9.47395 48.6485 9.1417C48.1739 8.80945 47.5197 8.92473 47.1875 9.39949L44.1303 13.7668L41.0732 9.39949C40.741 8.92473 40.0867 8.80932 39.6122 9.1417C39.1374 9.47395 39.022 10.1281 39.3544 10.6027L42.8499 15.5961L39.3546 20.5894C39.0224 21.064 39.1378 21.7182 39.6124 22.0505C39.7955 22.1787 40.0054 22.2401 40.2131 22.2401C40.5438 22.2401 40.8693 22.0841 41.0733 21.7925L44.1305 17.4252L47.1876 21.7925C47.3918 22.0841 47.7172 22.2401 48.0479 22.2401C48.2556 22.2401 48.4656 22.1786 48.6485 22.0505C49.1232 21.7182 49.2387 21.064 48.9063 20.5894Z" fill="#EFE481"/>
<path d="M17.8341 27.975H15.5961C15.0168 27.975 14.547 28.4446 14.547 29.0241C14.547 29.6035 15.0167 30.0732 15.5961 30.0732H17.8341C18.4134 30.0732 18.8832 29.6035 18.8832 29.0241C18.8832 28.4446 18.4134 27.975 17.8341 27.975Z" fill="#EFE481"/>
<path d="M17.8341 32.4509H15.5961C15.0168 32.4509 14.547 32.9206 14.547 33.5C14.547 34.0794 15.0167 34.5491 15.5961 34.5491H17.8341C18.4134 34.5491 18.8832 34.0794 18.8832 33.5C18.8832 32.9206 18.4134 32.4509 17.8341 32.4509Z" fill="#EFE481"/>
<path d="M17.8341 36.9269H15.5961C15.0168 36.9269 14.547 37.3966 14.547 37.976C14.547 38.5555 15.0167 39.0251 15.5961 39.0251H17.8341C18.4134 39.0251 18.8832 38.5555 18.8832 37.976C18.8832 37.3966 18.4134 36.9269 17.8341 36.9269Z" fill="#EFE481"/>
<path d="M51.4039 27.975H49.166C48.5867 27.975 48.1169 28.4446 48.1169 29.0241C48.1169 29.6035 48.5865 30.0732 49.166 30.0732H51.4039C51.9833 30.0732 52.453 29.6035 52.453 29.0241C52.453 28.4446 51.9834 27.975 51.4039 27.975Z" fill="#EFE481"/>
<path d="M51.4039 32.4509H49.166C48.5867 32.4509 48.1169 32.9206 48.1169 33.5C48.1169 34.0794 48.5865 34.5491 49.166 34.5491H51.4039C51.9833 34.5491 52.453 34.0794 52.453 33.5C52.453 32.9206 51.9834 32.4509 51.4039 32.4509Z" fill="#EFE481"/>
<path d="M51.4039 36.9269H49.166C48.5867 36.9269 48.1169 37.3966 48.1169 37.976C48.1169 38.5555 48.5865 39.0251 49.166 39.0251H51.4039C51.9833 39.0251 52.453 38.5555 52.453 37.976C52.453 37.3966 51.9834 36.9269 51.4039 36.9269Z" fill="#EFE481"/>
<path d="M35.738 27.975H22.3101C21.7308 27.975 21.261 28.4446 21.261 29.0241C21.261 29.6035 21.7306 30.0732 22.3101 30.0732H35.7381C36.3174 30.0732 36.7872 29.6035 36.7872 29.0241C36.7872 28.4446 36.3174 27.975 35.738 27.975Z" fill="#EFE481"/>
<path d="M31.262 32.4509H22.3101C21.7308 32.4509 21.261 32.9206 21.261 33.5C21.261 34.0794 21.7306 34.5491 22.3101 34.5491H31.262C31.8414 34.5491 32.3111 34.0794 32.3111 33.5C32.3111 32.9206 31.8414 32.4509 31.262 32.4509Z" fill="#EFE481"/>
<path d="M35.738 36.9269H22.3101C21.7308 36.9269 21.261 37.3966 21.261 37.976C21.261 38.5555 21.7306 39.0251 22.3101 39.0251H35.7381C36.3174 39.0251 36.7872 38.5555 36.7872 37.976C36.7872 37.3966 36.3174 36.9269 35.738 36.9269Z" fill="#EFE481"/>
<path d="M20.0021 50.6661V47.0205C20.7751 47.2739 21.261 47.7838 21.261 48.2567C21.261 48.8361 21.7307 49.3058 22.3101 49.3058C22.8895 49.3058 23.3592 48.8362 23.3592 48.2567C23.3592 46.5838 21.9501 45.2211 20.0023 44.8565V44.6899C20.0023 44.1106 19.5326 43.6408 18.9532 43.6408C18.3737 43.6408 17.9041 44.1105 17.9041 44.6899V44.8565C15.9562 45.2211 14.5471 46.5838 14.5471 48.2567C14.5471 50.5942 16.4138 51.5765 17.9041 52.142V55.7876C17.1311 55.5342 16.6452 55.0241 16.6452 54.5513C16.6452 53.972 16.1755 53.5022 15.5961 53.5022C15.0167 53.5022 14.547 53.9719 14.547 54.5513C14.547 56.2242 15.9561 57.587 17.9039 57.9516V58.1182C17.9039 58.6975 18.3736 59.1673 18.953 59.1673C19.5325 59.1673 20.0021 58.6976 20.0021 58.1182V57.9516C21.95 57.587 23.3591 56.2242 23.3591 54.5513C23.3591 52.2138 21.4924 51.2314 20.0021 50.6661ZM17.9039 49.853C16.8581 49.3405 16.6451 48.8929 16.6451 48.2567C16.6451 47.7838 17.1309 47.2739 17.9039 47.0205V49.853ZM20.0021 55.7873V52.9549C21.048 53.4673 21.261 53.915 21.261 54.5511C21.261 55.024 20.775 55.5341 20.0021 55.7873Z" fill="#EFE481"/>
<path d="M34.619 45.8789H26.786C26.2067 45.8789 25.7369 46.3486 25.7369 46.928C25.7369 47.5075 26.2065 47.9771 26.786 47.9771H34.619C35.1983 47.9771 35.6681 47.5075 35.6681 46.928C35.6681 46.3486 35.1984 45.8789 34.619 45.8789Z" fill="#EFE481"/>
<path d="M31.262 54.8309H26.786C26.2067 54.8309 25.7369 55.3005 25.7369 55.88C25.7369 56.4593 26.2065 56.9291 26.786 56.9291H31.262C31.8413 56.9291 32.3111 56.4594 32.3111 55.88C32.311 55.3007 31.8413 54.8309 31.262 54.8309Z" fill="#EFE481"/>
<path d="M37.976 54.8309H35.7381C35.1587 54.8309 34.689 55.3005 34.689 55.88C34.689 56.4593 35.1586 56.9291 35.7381 56.9291H37.976C38.5553 56.9291 39.0251 56.4594 39.0251 55.88C39.025 55.3007 38.5553 54.8309 37.976 54.8309Z" fill="#EFE481"/>
<path d="M41.333 50.3549H26.786C26.2067 50.3549 25.7369 50.8246 25.7369 51.404C25.7369 51.9834 26.2065 52.4531 26.786 52.4531H41.333C41.9123 52.4531 42.3821 51.9835 42.3821 51.404C42.3821 50.8246 41.9123 50.3549 41.333 50.3549Z" fill="#EFE481"/>
<path d="M35.7379 34.5491C36.3173 34.5491 36.787 34.0794 36.787 33.5C36.787 32.9206 36.3173 32.4509 35.7379 32.4509C35.1585 32.4509 34.6888 32.9206 34.6888 33.5C34.6888 34.0794 35.1585 34.5491 35.7379 34.5491Z" fill="#EFE481"/>
<path d="M40.214 34.5491C40.7934 34.5491 41.2631 34.0794 41.2631 33.5C41.2631 32.9206 40.7934 32.4509 40.214 32.4509C39.6346 32.4509 39.1649 32.9206 39.1649 33.5C39.1649 34.0794 39.6346 34.5491 40.214 34.5491Z" fill="#EFE481"/>
<path d="M44.6899 34.5491C45.2693 34.5491 45.739 34.0794 45.739 33.5C45.739 32.9206 45.2693 32.4509 44.6899 32.4509C44.1105 32.4509 43.6408 32.9206 43.6408 33.5C43.6408 34.0794 44.1105 34.5491 44.6899 34.5491Z" fill="#EFE481"/>
<path d="M40.214 30.0731C40.7934 30.0731 41.2631 29.6034 41.2631 29.024C41.2631 28.4446 40.7934 27.9749 40.214 27.9749C39.6346 27.9749 39.1649 28.4446 39.1649 29.024C39.1649 29.6034 39.6346 30.0731 40.214 30.0731Z" fill="#EFE481"/>
<path d="M44.6899 30.0731C45.2693 30.0731 45.739 29.6034 45.739 29.024C45.739 28.4446 45.2693 27.9749 44.6899 27.9749C44.1105 27.9749 43.6408 28.4446 43.6408 29.024C43.6408 29.6034 44.1105 30.0731 44.6899 30.0731Z" fill="#EFE481"/>
<path d="M40.214 39.0251C40.7934 39.0251 41.2631 38.5554 41.2631 37.976C41.2631 37.3966 40.7934 36.9269 40.214 36.9269C39.6346 36.9269 39.1649 37.3966 39.1649 37.976C39.1649 38.5554 39.6346 39.0251 40.214 39.0251Z" fill="#EFE481"/>
<path d="M44.6899 39.0251C45.2693 39.0251 45.739 38.5554 45.739 37.976C45.739 37.3966 45.2693 36.9269 44.6899 36.9269C44.1105 36.9269 43.6408 37.3966 43.6408 37.976C43.6408 38.5554 44.1105 39.0251 44.6899 39.0251Z" fill="#EFE481"/>
</svg>
